HIERARCHY
ROOT Hips
{
	OFFSET 0.000000 71.427986 0.000000
	CHANNELS 6 Xposition Yposition Zposition Xrotation Yrotation Zrotation
	JOINT Pelvis
	{
		OFFSET 0.000000 0.000000 0.000000
		CHANNELS 3 Xrotation Yrotation Zrotation
		JOINT LeftUpLeg
		{
			OFFSET 6.797100 -2.508499 -1.318700
			CHANNELS 3 Xrotation Yrotation Zrotation
			JOINT LeftLeg
			{
				OFFSET 0.069008 -29.241863 0.690200
				CHANNELS 3 Xrotation Yrotation Zrotation
				JOINT LeftFoot
				{
					OFFSET -0.069008 -29.568123 -0.266800
					CHANNELS 3 Xrotation Yrotation Zrotation
					JOINT LeftToeBase
					{
						OFFSET 3.145500 -8.631000 16.059900
						CHANNELS 3 Xrotation Yrotation Zrotation
						End Site
						{
							OFFSET 0.000000 18.501587 0.000000
						}
					}
				}
			}
			JOINT Left_ShortSleeve
			{
				OFFSET 0.265923 -10.480953 1.153800
				CHANNELS 3 Xrotation Yrotation Zrotation
				End Site
				{
					OFFSET 1.725763 19.823879 0.000000
				}
			}
		}
		JOINT RightUpLeg
		{
			OFFSET -6.797100 -2.508499 -1.318700
			CHANNELS 3 Xrotation Yrotation Zrotation
			JOINT RightLeg
			{
				OFFSET -0.082453 -29.241932 0.688000
				CHANNELS 3 Xrotation Yrotation Zrotation
				JOINT RightFoot
				{
					OFFSET 0.082453 -29.568058 -0.264600
					CHANNELS 3 Xrotation Yrotation Zrotation
					JOINT RightToeBase
					{
						OFFSET -3.115300 -8.682800 16.113400
						CHANNELS 3 Xrotation Yrotation Zrotation
						End Site
						{
							OFFSET 0.000000 18.567114 0.000000
						}
					}
				}
			}
			JOINT Right_ShortSleeve
			{
				OFFSET -0.265923 -10.480953 1.153800
				CHANNELS 3 Xrotation Yrotation Zrotation
				End Site
				{
					OFFSET -1.725766 19.823910 0.000000
				}
			}
		}
	}
	JOINT Spine
	{
		OFFSET 0.000000 13.368103 0.470500
		CHANNELS 3 Xrotation Yrotation Zrotation
		JOINT Spine1
		{
			OFFSET 0.147000 13.837402 0.538800
			CHANNELS 3 Xrotation Yrotation Zrotation
			JOINT Spine2
			{
				OFFSET 0.168000 16.242897 -1.435500
				CHANNELS 3 Xrotation Yrotation Zrotation
				JOINT Neck
				{
					OFFSET 0.217200 18.631500 -1.679100
					CHANNELS 3 Xrotation Yrotation Zrotation
					JOINT Head
					{
						OFFSET 0.000000 6.599396 1.385900
						CHANNELS 3 Xrotation Yrotation Zrotation
						JOINT Hat
						{
							OFFSET -0.532200 27.220596 -10.096100
							CHANNELS 3 Xrotation Yrotation Zrotation
							End Site
							{
								OFFSET 0.000000 22.029861 0.000000
							}
						}
						JOINT HairD
						{
							OFFSET -10.777400 17.437393 -1.325900
							CHANNELS 3 Xrotation Yrotation Zrotation
							JOINT HairD1
							{
								OFFSET -3.290299 -11.051193 1.062200
								CHANNELS 3 Xrotation Yrotation Zrotation
								End Site
								{
									OFFSET 0.000000 11.579437 0.000000
								}
							}
						}
						JOINT HairB
						{
							OFFSET -10.777400 17.437393 1.467900
							CHANNELS 3 Xrotation Yrotation Zrotation
							JOINT HairB1
							{
								OFFSET -1.561200 -12.956299 3.590200
								CHANNELS 3 Xrotation Yrotation Zrotation
								End Site
								{
									OFFSET 0.000000 13.534866 0.000000
								}
							}
						}
						JOINT HairA
						{
							OFFSET 9.713100 17.437393 1.467900
							CHANNELS 3 Xrotation Yrotation Zrotation
							JOINT HairA1
							{
								OFFSET 1.561200 -12.956299 3.590200
								CHANNELS 3 Xrotation Yrotation Zrotation
								End Site
								{
									OFFSET 0.000000 13.534866 0.000000
								}
							}
						}
						JOINT HairC
						{
							OFFSET 9.713100 17.437393 -1.325900
							CHANNELS 3 Xrotation Yrotation Zrotation
							JOINT HairC1
							{
								OFFSET 3.290300 -11.051193 1.062200
								CHANNELS 3 Xrotation Yrotation Zrotation
								End Site
								{
									OFFSET 0.000000 11.579437 0.000000
								}
							}
						}
					}
				}
				JOINT LeftShoulder
				{
					OFFSET 5.101800 15.108002 -2.763700
					CHANNELS 3 Xrotation Yrotation Zrotation
					JOINT LeftArm
					{
						OFFSET 9.825497 2.506317 -1.597400
						CHANNELS 3 Xrotation Yrotation Zrotation
						JOINT LeftForeArm
						{
							OFFSET 21.966244 0.000000 0.000000
							CHANNELS 3 Xrotation Yrotation Zrotation
							JOINT LeftHand
							{
								OFFSET 33.879036 0.000000 0.000000
								CHANNELS 3 Xrotation Yrotation Zrotation
								JOINT LeftHandThumb1
								{
									OFFSET 6.715286 -2.359680 3.363841
									CHANNELS 3 Xrotation Yrotation Zrotation
									JOINT LeftHandThumb2
									{
										OFFSET 2.507072 -1.447464 1.447461
										CHANNELS 3 Xrotation Yrotation Zrotation
										JOINT LeftHandThumb3
										{
											OFFSET 2.898338 -1.673355 1.673357
											CHANNELS 3 Xrotation Yrotation Zrotation
											End Site
											{
												OFFSET -0.295959 3.727692 -0.131651
											}
										}
									}
								}
								JOINT LeftHandIndex1
								{
									OFFSET 14.190811 -0.254547 3.840278
									CHANNELS 3 Xrotation Yrotation Zrotation
									JOINT LeftHandIndex2
									{
										OFFSET 3.551727 0.000000 -0.000000
										CHANNELS 3 Xrotation Yrotation Zrotation
										JOINT LeftHandIndex3
										{
											OFFSET 2.894196 0.000000 0.000000
											CHANNELS 3 Xrotation Yrotation Zrotation
											End Site
											{
												OFFSET -1.000603 2.690872 0.366626
											}
										}
									}
								}
								JOINT LeftHandMiddle1
								{
									OFFSET 13.776489 0.000000 0.000000
									CHANNELS 3 Xrotation Yrotation Zrotation
									JOINT LeftHandMiddle2
									{
										OFFSET 3.438232 0.000000 0.000000
										CHANNELS 3 Xrotation Yrotation Zrotation
										JOINT LeftHandMiddle3
										{
											OFFSET 3.691551 0.000000 0.000000
											CHANNELS 3 Xrotation Yrotation Zrotation
											End Site
											{
												OFFSET -1.082298 3.499527 0.457670
											}
										}
									}
								}
								JOINT LeftHandRing1
								{
									OFFSET 13.966164 -0.268127 -3.067488
									CHANNELS 3 Xrotation Yrotation Zrotation
									JOINT LeftHandRing2
									{
										OFFSET 3.162567 0.000000 0.000000
										CHANNELS 3 Xrotation Yrotation Zrotation
										JOINT LeftHandRing3
										{
											OFFSET 3.324348 0.000000 0.000000
											CHANNELS 3 Xrotation Yrotation Zrotation
											End Site
											{
												OFFSET -0.861900 3.184998 0.405154
											}
										}
									}
								}
								JOINT LeftHandPinky1
								{
									OFFSET 13.131393 -0.168503 -5.746925
									CHANNELS 3 Xrotation Yrotation Zrotation
									JOINT LeftHandPinky2
									{
										OFFSET 2.849182 0.000000 0.000000
										CHANNELS 3 Xrotation Yrotation Zrotation
										JOINT LeftHandPinky3
										{
											OFFSET 2.805038 0.000000 0.000000
											CHANNELS 3 Xrotation Yrotation Zrotation
											End Site
											{
												OFFSET -0.882500 2.642609 0.325652
											}
										}
									}
								}
							}
							JOINT Left_Sleeve
							{
								OFFSET 6.592125 -0.646545 0.805568
								CHANNELS 3 Xrotation Yrotation Zrotation
								End Site
								{
									OFFSET -0.000179 20.275787 -0.000000
								}
							}
						}
					}
				}
				JOINT RightShoulder
				{
					OFFSET -5.731700 15.108002 -2.763700
					CHANNELS 3 Xrotation Yrotation Zrotation
					JOINT RightArm
					{
						OFFSET -9.825497 2.506317 -1.597400
						CHANNELS 3 Xrotation Yrotation Zrotation
						JOINT RightForeArm
						{
							OFFSET -21.966242 0.000000 0.000000
							CHANNELS 3 Xrotation Yrotation Zrotation
							JOINT RightHand
							{
								OFFSET -33.879032 0.000000 0.000000
								CHANNELS 3 Xrotation Yrotation Zrotation
								JOINT RightHandThumb1
								{
									OFFSET -6.715286 -2.359680 3.363841
									CHANNELS 3 Xrotation Yrotation Zrotation
									JOINT RightHandThumb2
									{
										OFFSET -2.507072 -1.447464 1.447461
										CHANNELS 3 Xrotation Yrotation Zrotation
										JOINT RightHandThumb3
										{
											OFFSET -2.898338 -1.673355 1.673357
											CHANNELS 3 Xrotation Yrotation Zrotation
											End Site
											{
												OFFSET 0.295959 3.727692 -0.131651
											}
										}
									}
								}
								JOINT RightHandIndex1
								{
									OFFSET -14.190811 -0.254547 3.840278
									CHANNELS 3 Xrotation Yrotation Zrotation
									JOINT RightHandIndex2
									{
										OFFSET -3.551727 0.000000 -0.000000
										CHANNELS 3 Xrotation Yrotation Zrotation
										JOINT RightHandIndex3
										{
											OFFSET -2.894196 0.000000 0.000000
											CHANNELS 3 Xrotation Yrotation Zrotation
											End Site
											{
												OFFSET 1.000603 2.690872 0.366626
											}
										}
									}
								}
								JOINT RightHandMiddle1
								{
									OFFSET -13.776489 0.000000 0.000000
									CHANNELS 3 Xrotation Yrotation Zrotation
									JOINT RightHandMiddle2
									{
										OFFSET -3.438232 0.000000 0.000000
										CHANNELS 3 Xrotation Yrotation Zrotation
										JOINT RightHandMiddle3
										{
											OFFSET -3.691551 0.000000 0.000000
											CHANNELS 3 Xrotation Yrotation Zrotation
											End Site
											{
												OFFSET 1.082298 3.499527 0.457670
											}
										}
									}
								}
								JOINT RightHandRing1
								{
									OFFSET -13.966164 -0.268127 -3.067488
									CHANNELS 3 Xrotation Yrotation Zrotation
									JOINT RightHandRing2
									{
										OFFSET -3.162567 0.000000 0.000000
										CHANNELS 3 Xrotation Yrotation Zrotation
										JOINT RightHandRing3
										{
											OFFSET -3.324348 0.000000 0.000000
											CHANNELS 3 Xrotation Yrotation Zrotation
											End Site
											{
												OFFSET 0.861900 3.184998 0.405154
											}
										}
									}
								}
								JOINT RightHandPinky1
								{
									OFFSET -13.131393 -0.168503 -5.746925
									CHANNELS 3 Xrotation Yrotation Zrotation
									JOINT RightHandPinky2
									{
										OFFSET -2.849182 0.000000 0.000000
										CHANNELS 3 Xrotation Yrotation Zrotation
										JOINT RightHandPinky3
										{
											OFFSET -2.805038 0.000000 0.000000
											CHANNELS 3 Xrotation Yrotation Zrotation
											End Site
											{
												OFFSET 0.882500 2.642609 0.325652
											}
										}
									}
								}
							}
							JOINT Right_Sleeve
							{
								OFFSET -6.592125 -0.646545 0.805568
								CHANNELS 3 Xrotation Yrotation Zrotation
								End Site
								{
									OFFSET 0.000179 20.275787 -0.000000
								}
							}
						}
					}
				}
				JOINT Bind_Right_JacketString
				{
					OFFSET -3.534800 11.969597 7.200700
					CHANNELS 3 Xrotation Yrotation Zrotation
					JOINT Bind_Right_JacketString1
					{
						OFFSET -0.319900 -6.102600 2.794100
						CHANNELS 3 Xrotation Yrotation Zrotation
						End Site
						{
							OFFSET 0.000000 6.719452 0.000000
						}
					}
				}
				JOINT Bind_Left_JacketString
				{
					OFFSET 2.904800 11.969597 7.200700
					CHANNELS 3 Xrotation Yrotation Zrotation
					JOINT Bind_Left_JacketString1
					{
						OFFSET 0.364800 -5.904503 3.186800
						CHANNELS 3 Xrotation Yrotation Zrotation
						End Site
						{
							OFFSET 0.000000 6.719513 0.000000
						}
					}
				}
				JOINT HairE
				{
					OFFSET 5.915200 17.612701 -11.592200
					CHANNELS 3 Xrotation Yrotation Zrotation
					JOINT HairE1
					{
						OFFSET 0.289200 -7.171898 -1.284500
						CHANNELS 3 Xrotation Yrotation Zrotation
						End Site
						{
							OFFSET 0.000000 7.291756 0.000000
						}
					}
				}
				JOINT HairF
				{
					OFFSET -0.864800 17.612701 -11.592200
					CHANNELS 3 Xrotation Yrotation Zrotation
					JOINT HairF1
					{
						OFFSET 0.000000 -14.087097 -2.127501
						CHANNELS 3 Xrotation Yrotation Zrotation
						End Site
						{
							OFFSET 0.000000 14.246841 0.000000
						}
					}
				}
				JOINT HairG
				{
					OFFSET -8.087700 17.612701 -11.592200
					CHANNELS 3 Xrotation Yrotation Zrotation
					JOINT HairG1
					{
						OFFSET -0.293600 -6.081398 -0.910100
						CHANNELS 3 Xrotation Yrotation Zrotation
						End Site
						{
							OFFSET 0.000000 6.156120 0.000000
						}
					}
				}
			}
		}
	}
	JOINT Pouch
	{
		OFFSET 0.000000 4.394501 10.847300
		CHANNELS 3 Xrotation Yrotation Zrotation
		End Site
		{
			OFFSET 0.000000 21.880577 0.000000
		}
	}
	JOINT Bag
	{
		OFFSET -13.229000 4.813004 -0.593300
		CHANNELS 3 Xrotation Yrotation Zrotation
		End Site
		{
			OFFSET 0.000000 21.880577 0.000000
		}
	}
	JOINT OccupyGuyFacialAnim_Joint
	{
		OFFSET 1.000000 -70.206398 -1.655000
		CHANNELS 3 Xrotation Yrotation Zrotation
		End Site
		{
			OFFSET 0.000000 21.880577 0.000000
		}
	}
}
MOTION
Frames: 4
Frame Time: 0.033333
8.438511 56.189438 -81.505630 17.747948 7.523651 5.474387 0.000001 0.000000 0.000000 -61.014790 22.658181 -2.944970 80.218311 8.429561 -9.647673 -29.207634 -3.789637 13.421855 -0.000000 -0.000001 0.000000 0.000001 -0.000002 -0.000000 7.286617 -11.446584 6.336557 32.963538 -11.275745 -1.098024 -50.264383 -17.888634 4.852583 -0.000000 0.000001 -0.000000 -0.000000 0.000001 0.000001 10.340810 12.633711 -11.939652 0.428651 4.028434 -2.389466 0.332196 4.079331 -2.403150 0.676125 -1.872801 -0.961878 -3.773778 -17.599413 4.322139 -0.000001 -0.000001 0.000000 -0.000001 -0.000001 0.000000 -0.000001 -0.000001 0.000000 -0.000001 -0.000001 -0.000000 -0.000001 -0.000000 -0.000000 -0.000001 -0.000001 -0.000000 -0.000001 -0.000000 -0.000000 -0.000001 -0.000001 0.000000 -0.000001 -0.000001 0.000000 -0.447512 0.656062 1.502823 8.272382 23.942280 -8.953440 -0.000004 -42.199422 -0.000005 14.131381 13.129598 -3.551276 11.124938 -6.748761 18.458555 -4.678010 20.554421 9.438271 -0.000001 -0.000003 0.000001 5.222276 -6.390118 -0.536694 0.057757 0.821455 -8.042938 -0.000001 -0.000001 0.000001 -0.042444 1.497974 -5.415980 0.221104 1.595812 -15.774991 -0.000001 0.000001 -0.000003 0.614136 4.990614 -17.720977 0.221436 1.597046 -15.787501 -0.000002 0.000003 -0.000000 2.481492 17.365343 -26.465279 1.302602 3.684417 -38.930367 -0.000001 0.000003 0.000003 -0.000001 -0.000001 0.000003 3.475386 3.508528 -23.114098 -11.558861 14.455015 2.399132 -0.000000 52.486613 -0.000001 -15.736956 19.852771 -18.024430 -63.572853 -24.699762 13.727458 18.659457 -1.302804 -25.558926 -0.000000 -0.000001 0.000001 5.460716 6.461538 -2.010310 0.037431 -0.589915 7.261263 -0.000000 0.000003 0.000003 -0.015616 -1.102536 2.871403 0.147121 -1.162521 14.424371 0.000001 -0.000002 -0.000004 0.465457 -4.449617 14.988212 0.119970 -1.051330 13.019018 0.000002 0.000003 -0.000000 2.488864 -10.000431 20.771616 0.002076 -0.138892 1.705516 -0.000000 0.000005 -0.000002 0.000001 0.000001 0.000001 -0.000001 -0.000000 -0.000000 -0.000000 -0.000002 0.000000 -0.000001 -0.000000 -0.000000 -0.000001 -0.000000 -0.000000 -0.000001 -0.000000 -0.000000 -0.000000 -0.000002 0.000001 -0.000001 -0.000000 -0.000000 -0.000001 -0.000000 -0.000000 -0.000001 -0.000000 -0.000000 -0.000000 -0.000002 0.000001 0.000001 0.000000 0.000000 0.000001 0.000000 0.000000 0.000001 0.000000 0.000000 
8.372547 57.644066 -80.787010 17.995843 6.815239 4.577309 0.000002 0.000000 -0.000000 -56.584511 20.491478 -2.201091 75.706472 2.258165 -9.303238 -30.146266 -4.185556 14.713329 -0.000000 0.000002 0.000000 -0.000000 0.000002 -0.000000 7.717593 -10.870992 6.660629 31.465814 -12.248254 -1.551914 -43.965067 -15.613573 7.727938 -0.000001 0.000001 0.000000 -0.000002 0.000000 -0.000002 9.531316 12.058527 -12.144819 0.344351 3.866546 -2.446930 0.249569 3.916824 -2.456722 0.599343 -1.791535 -0.729019 -1.886426 -16.699218 5.588261 -0.000000 -0.000001 0.000000 -0.000000 -0.000001 0.000000 -0.000000 -0.000001 0.000001 -0.000000 -0.000001 0.000001 -0.000002 0.000000 -0.000000 -0.000000 -0.000001 0.000001 -0.000002 0.000000 -0.000000 -0.000000 -0.000001 0.000000 -0.000000 -0.000001 0.000000 -1.871246 -1.715217 -2.054764 13.681143 25.453622 -13.768734 -0.000009 -41.969696 0.000005 11.172083 11.436955 -4.653335 10.484096 -4.795370 17.361238 -4.773428 21.256611 9.921564 0.000004 0.000002 0.000001 5.319332 -6.418750 0.518872 0.048002 0.749206 -7.331428 -0.000001 0.000001 -0.000003 -0.027004 1.398647 -4.454058 0.190483 1.483259 -14.636042 -0.000002 -0.000002 -0.000001 0.609375 5.024463 -16.829455 0.187815 1.472961 -14.531945 -0.000001 0.000000 -0.000004 2.248845 17.145395 -24.828849 1.414438 3.818461 -40.639909 -0.000001 0.000002 0.000003 -0.000001 0.000001 -0.000001 2.631425 3.910848 -15.215049 -12.498318 14.302492 4.547375 -0.000003 59.166118 0.000001 -17.841625 21.530076 -18.419094 -70.165283 -28.982569 14.425448 20.205796 0.552371 -29.775691 0.000001 -0.000001 0.000001 5.683669 6.457350 -4.624770 0.025397 -0.486281 5.980493 -0.000002 -0.000002 -0.000002 0.049323 -0.864408 0.005881 0.105751 -0.987835 12.219973 0.000000 -0.000000 0.000001 0.386441 -4.381424 11.755239 0.053181 -0.702561 8.657687 -0.000001 -0.000003 -0.000001 2.059983 -10.162443 16.786045 0.000001 0.000005 0.000045 0.000001 0.000005 -0.000001 0.000000 -0.000000 0.000000 0.000002 -0.000003 0.000000 0.000002 -0.000001 -0.000002 0.000002 -0.000003 0.000000 0.000002 -0.000003 0.000000 0.000002 -0.000003 0.000000 0.000002 -0.000001 -0.000001 0.000002 -0.000003 0.000000 0.000002 -0.000003 0.000000 0.000002 -0.000003 0.000000 0.000002 -0.000001 -0.000001 0.000002 0.000000 -0.000000 0.000002 0.000000 -0.000000 0.000002 0.000000 -0.000000 
8.409776 59.843620 -79.575264 17.596130 7.052272 3.827153 0.000000 -0.000000 -0.000000 -50.376794 16.590145 -4.413890 67.933724 -1.570890 -8.424183 -29.332678 -3.902771 14.516158 0.000000 -0.000000 -0.000000 0.000004 0.000001 -0.000000 4.692734 -11.097004 4.496124 38.218300 -11.236957 -1.259661 -34.261270 -8.749336 10.735375 0.000000 -0.000002 0.000001 0.000002 0.000000 -0.000000 9.690050 10.537640 -11.903790 0.545623 3.429295 -2.514226 0.455426 3.475825 -2.533084 0.370687 -1.658690 -0.692155 -1.554323 -15.869624 5.841377 -0.000000 0.000001 -0.000000 -0.000000 0.000001 -0.000000 -0.000000 0.000001 0.000000 -0.000000 0.000001 -0.000000 -0.000002 -0.000000 0.000000 -0.000000 0.000001 -0.000000 -0.000002 -0.000000 0.000000 -0.000000 0.000001 -0.000000 -0.000000 0.000001 -0.000000 -4.104385 -4.796873 -7.367191 18.011882 22.817406 -20.467203 -0.000000 -37.525425 0.000007 11.338634 11.790051 -5.462025 8.533429 -2.437409 15.593600 -4.938582 22.366834 10.651610 -0.000005 -0.000000 -0.000000 5.368738 -6.432637 0.997255 0.043888 0.716590 -7.010525 -0.000001 -0.000002 -0.000000 -0.019402 1.355452 -4.019477 0.177464 1.432430 -14.123592 0.000003 0.000003 -0.000001 0.606632 5.040298 -16.428844 0.173573 1.416876 -13.967028 -0.000003 0.000004 -0.000002 1.968536 17.017481 -23.463836 1.414461 3.818466 -40.639933 -0.000001 0.000004 0.000003 0.000001 0.000003 -0.000003 1.614369 4.501699 -4.958825 -11.597762 13.693581 7.631941 -0.000014 66.489002 0.000014 -22.333744 25.250654 -16.151594 -78.327257 -34.194710 14.665285 21.806100 1.517523 -34.315943 0.000000 -0.000002 -0.000002 5.860245 6.451229 -6.593817 0.019018 -0.420926 5.174191 0.000000 0.000001 0.000004 0.110310 -0.675325 -2.301333 0.082166 -0.871867 10.766934 0.000001 -0.000001 -0.000001 0.305523 -4.265243 9.002177 0.017661 -0.405670 4.986202 0.000001 -0.000003 0.000000 1.639044 -10.113938 13.468559 0.000002 -0.000014 -0.000005 -0.000001 -0.000002 -0.000001 -0.000000 0.000001 0.000002 -0.000000 0.000003 -0.000002 -0.000002 0.000001 -0.000001 -0.000000 0.000003 -0.000001 -0.000000 0.000003 -0.000001 -0.000000 0.000003 -0.000002 -0.000002 0.000001 -0.000000 -0.000000 0.000003 -0.000001 -0.000000 0.000003 -0.000001 -0.000000 0.000003 -0.000002 -0.000002 0.000001 -0.000000 0.000000 -0.000000 -0.000000 0.000000 -0.000000 -0.000000 0.000000 -0.000000 -0.000000 
8.586457 61.007111 -78.404877 16.458592 8.287708 3.064700 0.000000 -0.000000 -0.000000 -46.341802 11.911977 -7.430897 64.416948 -4.305480 -6.287567 -29.050352 -3.699845 13.004583 0.000001 -0.000001 0.000000 -0.000000 -0.000002 -0.000001 -2.447775 -10.953749 -0.298819 53.977650 0.466617 0.169043 -21.698816 3.724457 2.640612 -0.000002 0.000000 0.000000 0.000001 0.000000 0.000001 11.017680 8.089346 -10.431101 0.982263 2.674095 -2.111736 0.910537 2.706899 -2.129686 0.032457 -1.374559 -0.732350 -2.584653 -14.110114 5.382095 0.000000 0.000001 -0.000001 0.000000 0.000001 -0.000001 0.000000 0.000001 -0.000001 0.000000 0.000001 -0.000000 0.000000 -0.000000 0.000000 0.000000 0.000001 -0.000000 0.000000 -0.000000 0.000000 0.000000 0.000001 -0.000001 0.000000 0.000001 -0.000001 -7.386276 -7.744740 -13.853364 19.639526 15.501340 -27.288088 -0.000000 -30.054998 -0.000011 12.353911 13.867706 -5.234299 6.244105 -0.213982 13.699148 -5.134471 23.519101 11.397292 -0.000001 0.000001 -0.000002 5.324888 -6.420630 0.478406 0.048406 0.752259 -7.361429 -0.000000 -0.000004 -0.000004 -0.027256 1.408019 -4.493010 0.191796 1.488238 -14.686162 -0.000002 0.000003 0.000001 0.609921 5.023774 -16.869833 0.189232 1.478430 -14.587153 0.000001 -0.000004 -0.000000 1.699412 17.017736 -22.732415 1.414445 3.818465 -40.639926 -0.000000 -0.000001 0.000003 0.000000 -0.000003 -0.000005 0.834205 5.537093 3.828410 -8.818435 12.911287 11.757983 -0.000018 70.670697 0.000025 -25.732661 25.666312 -13.067522 -86.260822 -39.012155 14.203104 22.561293 1.520211 -38.077601 0.000001 -0.000003 0.000003 5.941261 6.446074 -7.374428 0.018324 -0.413170 5.078731 -0.000001 0.000000 -0.000001 0.142853 -0.584049 -3.427079 0.077918 -0.849242 10.484168 0.000003 0.000000 0.000001 0.251312 -4.128196 7.460562 0.006324 -0.242848 2.982326 -0.000001 0.000001 0.000000 1.371917 -9.865553 11.711943 -0.000001 0.000007 0.000007 -0.000001 -0.000001 -0.000003 -0.000000 0.000002 -0.000000 -0.000001 0.000002 -0.000001 -0.000000 0.000000 -0.000000 -0.000001 0.000002 -0.000001 -0.000001 0.000002 -0.000001 -0.000001 0.000002 -0.000001 -0.000000 0.000000 -0.000000 -0.000001 0.000002 -0.000001 -0.000001 0.000002 -0.000001 -0.000001 0.000002 -0.000001 -0.000000 0.000000 -0.000000 0.000000 -0.000000 -0.000000 0.000000 -0.000000 -0.000000 0.000000 -0.000000 -0.000000 
